<?xml version="1.0" standalone="no"?>
<!DOCTYPE svg PUBLIC "-//W3C//DTD SVG 20010904//EN"
 "http://www.w3.org/TR/2001/REC-SVG-20010904/DTD/svg10.dtd">
<svg version="1.0" xmlns="http://www.w3.org/2000/svg"
 width="512.000000pt" height="512.000000pt" viewBox="0 0 512.000000 512.000000"
 preserveAspectRatio="xMidYMid meet">

<g transform="translate(0.000000,512.000000) scale(0.100000,-0.100000)"
fill="#000000" stroke="none">
<path d="M1940 4946 c-397 -58 -811 -265 -1157 -578 -401 -362 -640 -834 -620
-1223 11 -200 53 -306 206 -508 l104 -139 -36 -66 c-63 -118 -246 -579 -263
-665 -61 -301 93 -670 408 -973 266 -257 651 -467 1035 -564 176 -44 290 -60
469 -67 431 -16 785 110 979 347 61 74 89 130 190 380 48 118 88 216 89 217 1
1 32 -9 69 -22 235 -86 522 -90 717 -11 90 37 154 83 394 285 271 229 325 296
385 476 268 807 -570 2044 -1528 2255 -47 11 -98 20 -113 20 -22 0 -32 8 -49
43 -31 61 -64 107 -242 340 -88 114 -186 232 -219 262 -79 71 -214 140 -336
171 -122 32 -339 40 -482 20z m374 -161 c271 -47 450 -201 511 -440 20 -77 19
-245 -1 -341 -116 -562 -689 -1143 -1338 -1356 -180 -59 -329 -81 -501 -75
-236 9 -368 58 -496 186 -86 86 -127 160 -153 278 -52 231 30 538 221 828 396
602 1191 1019 1757 920z m748 -681 c21 -38 45 -100 53 -139 17 -74 22 -274 8
-300 -7 -11 -28 11 -88 91 l-78 106 17 71 c9 40 20 112 23 160 4 55 10 86 17
84 5 -2 27 -35 48 -73z m413 -206 c258 -86 513 -254 745 -494 288 -297 472
-626 552 -986 29 -133 32 -364 5 -473 -57 -226 -211 -385 -427 -442 -84 -22
-268 -21 -368 1 -304 67 -590 234 -858 501 -165 164 -291 331 -400 531 l-45
83 87 88 c216 220 371 460 458 711 49 142 67 245 67 396 l0 128 47 -7 c26 -4
87 -20 137 -37z m-429 -503 c-42 -94 -100 -204 -121 -232 l-22 -26 -92 121
-91 122 49 78 c27 43 66 111 86 151 l36 72 89 -116 89 -117 -23 -53z m-327
-279 l90 -119 -31 -41 c-47 -61 -287 -296 -302 -296 -7 0 -54 54 -105 119
l-91 120 167 169 c93 93 171 169 175 168 3 0 47 -55 97 -120z m-472 -436 c44
-58 83 -110 86 -116 9 -16 -145 -115 -290 -188 -62 -31 -116 -56 -120 -56 -7
0 -69 79 -165 210 l-28 37 113 57 c61 32 155 86 207 120 70 47 98 61 106 52 6
-6 47 -58 91 -116z m347 -240 c38 -72 130 -214 185 -286 l31 -41 -121 -101
c-67 -56 -125 -100 -129 -97 -18 11 -153 220 -203 315 l-55 103 106 74 c59 41
114 81 122 89 8 8 17 14 20 14 3 0 23 -31 44 -70z m-924 -59 c49 -66 86 -122
82 -124 -37 -22 -330 -73 -343 -60 -34 35 -167 219 -161 224 4 3 45 14 92 23
47 9 112 25 145 35 33 11 68 20 77 20 11 1 51 -43 108 -118z m-855 44 c44 -8
114 -14 155 -15 l75 0 84 -111 83 -111 -44 7 c-181 28 -325 100 -421 212 -16
18 -25 33 -20 33 4 0 44 -7 88 -15z m-177 -135 c101 -112 228 -187 394 -232
74 -21 105 -23 288 -23 147 1 224 5 273 16 37 9 67 13 67 10 0 -7 -217 -538
-225 -551 -3 -5 -15 -6 -28 -1 -12 5 -45 18 -73 29 l-51 21 -27 -69 c-15 -38
-25 -73 -22 -78 3 -5 33 -20 66 -32 68 -26 75 -32 61 -58 -6 -11 -19 -42 -30
-70 l-20 -50 74 -30 73 -30 28 67 c15 36 30 69 33 73 3 4 38 -7 78 -23 l71
-30 -29 -71 c-16 -39 -27 -74 -23 -77 3 -3 36 -18 72 -33 60 -24 68 -25 74
-10 4 10 18 43 32 74 l24 56 59 -24 c71 -29 175 -32 248 -7 70 24 156 110 184
186 25 68 27 147 6 207 -8 24 -14 44 -13 45 2 1 24 13 49 28 48 27 103 83 121
122 10 22 18 16 152 -120 77 -78 173 -167 212 -198 85 -66 241 -170 307 -203
26 -13 47 -30 47 -37 0 -23 -59 -108 -109 -156 -288 -281 -883 -327 -1461
-114 -149 55 -344 154 -475 241 -438 292 -692 702 -636 1028 11 63 56 184 69
184 3 0 30 -27 60 -60z m1556 -97 c15 -32 57 -105 92 -163 54 -89 64 -113 64
-151 0 -79 -62 -147 -142 -156 -38 -4 -71 6 -245 77 l-201 82 49 122 49 121
63 23 c34 12 98 40 142 61 44 22 85 40 90 40 6 1 23 -25 39 -56z m987 -458
c46 -37 83 -70 81 -74 -2 -3 -55 -50 -119 -103 l-116 -97 -51 40 c-94 74 -237
203 -272 245 l-34 42 121 101 121 101 92 -93 c51 -52 131 -124 177 -162z
m-2782 35 c13 -36 41 -99 63 -141 l40 -75 -47 -115 c-25 -63 -50 -118 -54
-122 -5 -4 -23 36 -41 90 -30 88 -34 110 -34 213 -1 84 4 131 17 174 10 32 22
55 26 50 4 -5 18 -38 30 -74z m1498 -116 c102 -41 197 -83 210 -91 32 -21 63
-84 63 -128 0 -49 -33 -109 -73 -134 -61 -38 -107 -30 -315 55 -103 41 -190
78 -193 80 -4 2 15 59 43 127 27 67 54 132 58 145 5 12 12 22 15 22 4 0 90
-34 192 -76z m1596 -132 c45 -26 113 -60 150 -76 37 -16 66 -32 65 -36 -2 -4
-50 -47 -107 -95 -89 -73 -108 -85 -130 -80 -39 10 -210 84 -258 112 l-43 25
118 99 c64 54 118 99 119 99 2 0 40 -21 86 -48z m-2645 -373 c3 -7 -90 -246
-105 -273 -7 -11 -120 101 -189 186 l-54 66 56 135 56 135 116 -120 c64 -66
118 -124 120 -129z m3257 177 l120 -12 -63 -41 c-34 -23 -90 -51 -124 -62 -82
-28 -219 -44 -288 -34 l-54 8 101 87 102 86 43 -10 c24 -5 97 -15 163 -22z
m-2912 -406 c60 -34 132 -72 162 -85 l53 -24 -58 -143 c-32 -78 -63 -144 -69
-146 -22 -7 -238 116 -404 229 -5 4 14 64 43 135 74 183 62 170 118 130 26
-19 96 -62 155 -96z m1813 -207 c-37 -75 -100 -149 -169 -200 -67 -49 -196
-118 -204 -109 -3 3 16 59 43 125 l48 119 61 17 c33 9 101 35 150 59 50 24 91
42 93 41 2 -2 -8 -25 -22 -52z m-1319 -6 c60 -19 158 -45 218 -58 61 -12 112
-24 113 -25 2 -1 -22 -66 -53 -143 -52 -127 -60 -141 -82 -141 -72 0 -443 99
-443 118 0 4 26 71 57 149 36 89 62 141 70 139 6 -3 61 -20 120 -39z m843
-106 c0 -3 -23 -63 -52 -132 -60 -149 -36 -135 -261 -145 l-147 -7 53 129 c29
71 56 136 59 144 5 12 34 15 177 16 94 0 171 -2 171 -5z"/>
<path d="M1782 4296 c-477 -77 -576 -95 -592 -112 -27 -27 -510 -1096 -510
-1128 0 -37 17 -65 45 -76 30 -11 1208 173 1240 194 24 16 525 1108 525 1145
0 38 -43 71 -92 70 -24 0 -301 -42 -616 -93z m-33 -385 c-195 -148 -356 -268
-358 -265 -6 5 -59 408 -55 413 4 5 709 119 743 120 15 1 -95 -89 -330 -268z
m305 -187 c-80 -175 -152 -333 -159 -351 l-13 -31 -189 80 c-103 44 -191 83
-194 86 -4 4 151 127 344 274 193 147 353 266 354 264 2 -1 -63 -146 -143
-322z m-829 -68 c9 -70 13 -132 8 -136 -24 -24 -258 -198 -261 -195 -2 2 47
117 109 255 91 200 115 246 121 228 3 -13 14 -81 23 -152z m392 -380 c4 -3 2
-6 -3 -6 -5 0 -130 -20 -279 -44 -148 -24 -271 -43 -272 -42 -1 1 61 49 137
108 l140 106 135 -58 c75 -32 139 -60 142 -64z"/>
<path d="M3537 3535 c-72 -27 -145 -92 -180 -161 -9 -18 -20 -57 -25 -88 -22
-140 41 -269 163 -332 62 -32 61 -31 70 -130 6 -58 4 -73 -10 -84 -13 -11 -23
-9 -67 11 -73 34 -213 34 -276 1 -66 -35 -119 -88 -149 -150 -23 -48 -28 -70
-28 -137 0 -68 4 -89 28 -137 95 -194 342 -242 501 -97 100 91 131 230 81 360
-3 8 4 20 15 27 16 10 34 8 99 -10 l80 -23 11 -45 c23 -93 102 -181 200 -221
20 -8 68 -14 110 -14 60 0 86 5 131 26 202 95 249 359 92 516 -140 140 -378
116 -488 -48 -16 -24 -30 -46 -32 -48 -1 -2 -31 4 -67 13 -61 17 -64 19 -70
54 -14 89 -11 98 47 125 117 53 178 142 185 268 6 111 -15 167 -92 245 -43 42
-76 66 -110 77 -60 20 -166 21 -219 2z m180 -161 c79 -38 109 -151 60 -225
-32 -49 -105 -83 -157 -74 -152 26 -181 248 -40 304 38 15 98 13 137 -5z m507
-608 c18 -8 45 -30 60 -49 36 -47 43 -96 21 -152 -43 -113 -185 -140 -264 -50
-112 128 26 317 183 251z m-793 -168 c73 -41 99 -138 56 -212 -63 -112 -221
-106 -278 10 -67 140 85 279 222 202z"/>
<path d="M920 4892 c-268 -168 -492 -369 -663 -596 l-67 -89 62 -44 c34 -24
65 -42 69 -41 4 2 40 46 80 98 144 189 402 417 606 538 l73 43 -32 57 c-48 89
-43 87 -128 34z"/>
<path d="M3440 4313 l0 -81 65 -7 c36 -3 68 -6 72 -6 4 0 15 34 24 75 19 87
25 81 -93 92 l-68 7 0 -80z"/>
<path d="M3776 4239 c-15 -39 -25 -72 -24 -73 2 -1 46 -21 98 -44 52 -24 127
-61 167 -84 177 -101 413 -305 558 -481 l70 -85 36 26 c19 15 48 37 63 49 l28
23 -58 72 c-202 248 -475 470 -739 598 -176 86 -167 86 -199 -1z"/>
<path d="M4500 1010 c-154 -80 -393 -158 -536 -176 l-56 -7 7 -46 c3 -25 9
-61 12 -80 l6 -33 46 6 c85 11 289 65 389 102 84 32 260 115 300 142 11 7 5
23 -28 76 -23 36 -43 66 -43 65 -1 0 -45 -22 -97 -49z"/>
<path d="M3668 803 l-68 -4 0 -79 0 -80 63 0 c100 0 102 2 99 68 -3 69 -10
103 -20 100 -4 -1 -37 -3 -74 -5z"/>
</g>
</svg>
